<?xml version="1.0" encoding="utf-8"?>
<!-- Generator: Adobe Illustrator 21.0.2, SVG Export Plug-In . SVG Version: 6.00 Build 0)  -->
<svg version="1.1" id="Capa_1" xmlns="http://www.w3.org/2000/svg" xmlns:xlink="http://www.w3.org/1999/xlink" x="0px" y="0px"
	 width="34px" height="315px" viewBox="0 0 34 315" style="enable-background:new 0 0 34 315;" xml:space="preserve">
<style type="text/css">
	.st0{fill:none;stroke:#202428;stroke-linecap:round;stroke-linejoin:round;}
	.st1{fill:#202428;}
	.st2{fill:none;stroke:#FFFFFF;stroke-linecap:round;stroke-linejoin:round;}
	.st3{fill:none;stroke:#2B2B2B;stroke-linecap:round;stroke-linejoin:round;stroke-miterlimit:10;}
</style>
<g transform="translate(1 1)">
	<path class="st0" d="M24.4,24.4l6.9,6.9"/>
	<g transform="translate(6 9)">
		<path class="st0" d="M10.5,2.5h4 M10.5,6.5h4"/>
		<path class="st1" d="M0.5,8.5c0-1.7,1.3-3,3-3h2c1.7,0,3,1.3,3,3H0.5z"/>
		<circle class="st1" cx="4.5" cy="2.5" r="2"/>
	</g>
	<circle class="st0" cx="13.9" cy="13.9" r="13.9"/>
	<path class="st0" d="M13.9,80.8H31 M13.9,83.9h8.6 M13.9,91.1H31 M13.9,94.9h8.6 M13.9,102.1H31 M13.9,106h8.6 M2.4,80h5.7v5.7H2.4
		V80z M2.4,101.3h5.7v5.7H2.4V101.3z"/>
	<g transform="translate(1 89.21)">
		<ellipse class="st1" cx="4.3" cy="4.3" rx="4.3" ry="4.3"/>
		<path class="st2" d="M2.4,4.3l1.2,1.2L6,3.1"/>
	</g>
	<g transform="translate(0 147)">
		<path class="st0" d="M11.7,65.7l3.2,3.2l8-8 M14.4,90.5c0-1-0.4-1.9-1.2-2.5c-1.2-0.9-3.2-2.1-6-2.1c-2.9,0-4.9,1.1-6,2.1
			C0.4,88.6,0,89.6,0,90.5v1.9h14.4V90.5z"/>
		<ellipse class="st0" cx="7.2" cy="77.2" rx="4" ry="4"/>
		<path class="st0" d="M32,90.5c0-1-0.4-1.9-1.2-2.5c-1.2-0.9-3.2-2.1-6-2.1c-2.9,0-4.9,1.1-6,2.1c-0.8,0.6-1.2,1.5-1.2,2.5v1.9H32
			V90.5z"/>
		<ellipse class="st0" cx="24.8" cy="77.2" rx="4" ry="4"/>
	</g>
	<g>
		<path class="st0" d="M12.8,239.4h5.7"/>
	</g>
	<g>
		<path class="st0" d="M27.2,285.4h3.7v27.1H1v-27.1h20.9"/>
		<path class="st0" d="M26.8,290.7h4.1 M1,290.7h15.5 M7.2,285.4v5.4 M16.7,296.7L14,294l10-10c0.8-0.8,1.9-0.8,2.7,0
			c0.8,0.8,0.8,1.9,0,2.7L16.7,296.7z M8.9,298.1c1.1-1.1,2.7-1.1,3.8,0s1.1,2.7,0,3.8c-1.1,1.1-4.7,1-4.7,1S7.8,299,8.9,298.1
			L8.9,298.1z"/>
	</g>
</g>
<g>
	<polyline class="st3" points="26.5,151.2 25.2,146.7 7.8,151 	"/>
	<path class="st3" d="M30.8,166v3.6c-0.2,2.6-2.3,4.7-4.9,5H5c-1.5-0.2-2.7-1.4-3-3v-17.5c0.3-1.5,1.6-2.7,3-3h20.9
		c2.6,0.3,4.7,2.5,4.9,5.1v3.4"/>
	<path class="st3" d="M32.8,163.9c0,1.4-0.7,2.1-1.9,2.1h-5.4c-1.2,0-2.3-0.8-2.3-2.1v-1.6c0-1.4,0.9-2.8,2.3-2.7h5.4
		c1.2-0.1,1.9,1.2,1.9,2.7V163.9z"/>
	<circle class="st3" cx="26.4" cy="162.7" r="1"/>
	<line class="st3" x1="5" y1="154.2" x2="6.3" y2="154.2"/>
	<line class="st3" x1="9" y1="154.2" x2="10.3" y2="154.2"/>
	<line class="st3" x1="13" y1="154.2" x2="14.4" y2="154.2"/>
	<line class="st3" x1="17.1" y1="154.2" x2="18.5" y2="154.2"/>
	<line class="st3" x1="21.1" y1="154.2" x2="22.4" y2="154.2"/>
	<line class="st3" x1="25.2" y1="154.2" x2="26.5" y2="154.2"/>
	<line class="st3" x1="5" y1="171.3" x2="6.3" y2="171.3"/>
	<line class="st3" x1="9" y1="171.3" x2="10.3" y2="171.3"/>
	<line class="st3" x1="13" y1="171.3" x2="14.4" y2="171.3"/>
	<line class="st3" x1="17.1" y1="171.3" x2="18.5" y2="171.3"/>
	<line class="st3" x1="21.1" y1="171.3" x2="22.4" y2="171.3"/>
	<line class="st3" x1="25.2" y1="171.3" x2="26.5" y2="171.3"/>
</g>
</svg>
